{
	"accessors": [
		{
			"bufferView": 2,
			"componentType": 5126,
			"count": 37218,
			"max": [2.3340330123901367, 1.8247580528259277, 2.6048135757446289],
			"min": [0, 0, 0],
			"type": "VEC3"
		},
		{
			"bufferView": 2,
			"byteOffset": 446616,
			"componentType": 5126,
			"count": 37218,
			"max": [0.99995958805084229, 0.99517542123794556, 0.99992835521697998],
			"min": [-0.99995249509811401, -0.99999725818634033, -0.99994778633117676],
			"type": "VEC3"
		},
		{
			"bufferView": 3,
			"componentType": 5126,
			"count": 37218,
			"max": [0.98825138807296753, 0.99813419580459595, 0.99999749660491943, 1],
			"min": [-0.99999099969863892, -0.99996984004974365, -0.99469846487045288, -1],
			"type": "VEC4"
		},
		{
			"bufferView": 1,
			"componentType": 5126,
			"count": 37218,
			"max": [0.96563798189163208, 0.99675297737121582],
			"min": [0.0020310000982135534, 0.003160000080242753],
			"type": "VEC2"
		},
		{
			"bufferView": 0,
			"componentType": 5125,
			"count": 214275,
			"max": [37217],
			"min": [0],
			"type": "SCALAR"
		},
		{
			"bufferView": 2,
			"byteOffset": 893232,
			"componentType": 5126,
			"count": 40487,
			"max": [2.451930046081543, 2.094074010848999, 2.5899553298950195],
			"min": [0.22321400046348572, 3.3020973205566406e-5, 0.0035142898559570312],
			"type": "VEC3"
		},
		{
			"bufferView": 2,
			"byteOffset": 1379076,
			"componentType": 5126,
			"count": 40487,
			"max": [0.99999600648880005, 0.99999260902404785, 0.99999094009399414],
			"min": [-0.99730426073074341, -0.99870836734771729, -0.99989867210388184],
			"type": "VEC3"
		},
		{
			"bufferView": 3,
			"byteOffset": 595488,
			"componentType": 5126,
			"count": 40487,
			"max": [0.999237060546875, 0.97563034296035767, 0.98310887813568115, 1],
			"min": [-0.98961341381072998, -0.99998396635055542, -0.99991846084594727, -1],
			"type": "VEC4"
		},
		{
			"bufferView": 1,
			"byteOffset": 297744,
			"componentType": 5126,
			"count": 40487,
			"max": [0.99092298746109009, 0.98592102527618408],
			"min": [0.002933999989181757, 0.0037090000696480274],
			"type": "VEC2"
		},
		{
			"bufferView": 0,
			"byteOffset": 857100,
			"componentType": 5125,
			"count": 229371,
			"max": [40486],
			"min": [0],
			"type": "SCALAR"
		}
	],
	"asset": {
		"extras": {
			"author": "City of Ballarat (https://sketchfab.com/CityofBallarat)",
			"license": "CC-BY-4.0 (http://creativecommons.org/licenses/by/4.0/)",
			"source": "https://sketchfab.com/models/d3d1da88ae7049fe8910bf013193fb19",
			"title": "Lead melting crucible"
		},
		"generator": "Sketchfab-3.18.6",
		"version": "2.0"
	},
	"bufferViews": [
		{
			"buffer": 0,
			"byteLength": 1774584,
			"byteOffset": 0,
			"name": "floatBufferViews",
			"target": 34963
		},
		{
			"buffer": 0,
			"byteLength": 621640,
			"byteOffset": 1774584,
			"byteStride": 8,
			"name": "floatBufferViews",
			"target": 34962
		},
		{
			"buffer": 0,
			"byteLength": 1864920,
			"byteOffset": 2396224,
			"byteStride": 12,
			"name": "floatBufferViews",
			"target": 34962
		},
		{
			"buffer": 0,
			"byteLength": 1243280,
			"byteOffset": 4261144,
			"byteStride": 16,
			"name": "floatBufferViews",
			"target": 34962
		}
	],
	"buffers": [
		{
			"byteLength": 5504424,
			"uri": "scene.bin"
		}
	],
	"images": [
		{
			"uri": "/assets/textures/model1_baseColor.jpeg"
		},
		{
			"uri": "/assets/textures/model_baseColor.jpeg"
		}
	],
	"materials": [
		{
			"doubleSided": true,
			"emissiveFactor": [0, 0, 0],
			"name": "model",
			"pbrMetallicRoughness": {
				"baseColorFactor": [1, 1, 1, 1],
				"baseColorTexture": {
					"index": 1,
					"texCoord": 0
				},
				"metallicFactor": 0,
				"roughnessFactor": 0.59999999999999998
			}
		},
		{
			"doubleSided": true,
			"emissiveFactor": [0, 0, 0],
			"name": "model1",
			"pbrMetallicRoughness": {
				"baseColorFactor": [1, 1, 1, 1],
				"baseColorTexture": {
					"index": 0,
					"texCoord": 0
				},
				"metallicFactor": 0,
				"roughnessFactor": 0.59999999999999998
			}
		}
	],
	"meshes": [
		{
			"primitives": [
				{
					"attributes": {
						"NORMAL": 1,
						"POSITION": 0,
						"TANGENT": 2,
						"TEXCOORD_0": 3
					},
					"indices": 4,
					"material": 0,
					"mode": 4
				}
			]
		},
		{
			"primitives": [
				{
					"attributes": {
						"NORMAL": 6,
						"POSITION": 5,
						"TANGENT": 7,
						"TEXCOORD_0": 8
					},
					"indices": 9,
					"material": 1,
					"mode": 4
				}
			]
		}
	],
	"nodes": [
		{
			"children": [1],
			"name": "RootNode (gltf orientation matrix)",
			"rotation": [-0.70710678118654746, -0, -0, 0.70710678118654757]
		},
		{
			"children": [2],
			"matrix": [
				0.8342171311378479, 0.54139399528503418, -0.10475823283195496, 0, 0.072448313236236572,
				-0.29593127965927124, -0.95245784521102905, 0, -0.54665619134902954, 0.78696709871292114,
				-0.28609403967857361, 0, 7.7766366004943848, -11.900911331176758, 17.630800247192383, 1
			],
			"name": "RootNode (model correction matrix)"
		},
		{
			"children": [3],
			"matrix": [
				1, 0, 0, 0, 0, 1, 0, 0, 0, 0, 1, 0, -0.44357800483703613, -1.4404400587081909,
				12.633964538574219, 1
			],
			"name": "model.obj.cleaner.materialmerger.gles"
		},
		{
			"children": [4, 5],
			"name": ""
		},
		{
			"mesh": 0,
			"name": ""
		},
		{
			"mesh": 1,
			"name": ""
		}
	],
	"samplers": [
		{
			"magFilter": 9729,
			"minFilter": 9987,
			"wrapS": 10497,
			"wrapT": 10497
		}
	],
	"scene": 0,
	"scenes": [
		{
			"name": "OSG_Scene",
			"nodes": [0]
		}
	],
	"/assets/textures": [
		{
			"sampler": 0,
			"source": 0
		},
		{
			"sampler": 0,
			"source": 1
		}
	]
}
